<svg width="120" height="120" viewBox="0 0 120 120" fill="none" xmlns="http://www.w3.org/2000/svg">
<circle cx="60" cy="60" r="60" fill="#00A8E1"/>
<path d="M39 30H80.5V34.7619H44.4878V53.8095H67.7349V60.9524H44.4878V84.0594H76V66.5H80.5V89.5H76L39 90V57.9208V30Z" fill="#FEFEFE"/>
<path d="M80.5 58.6699H76V53.8095H80.5V58.6699Z" fill="#FEFEFE"/>
<path d="M76 89.5L39 90V57.9208V30H80.5V34.7619H44.4878V60.9524M76 89.5H80.5V66.5H76V89.5ZM76 89.5V84.0594H44.4878V60.9524M44.4878 60.9524H67.7349V53.8095H44.4878M76 58.6699H80.5V53.8095H76V58.6699Z" stroke="#FEFEFE" stroke-width="4"/>
</svg>
