<svg width="80" height="70" viewBox="0 0 80 70" fill="none" xmlns="http://www.w3.org/2000/svg">
<path d="M0 0C5.52285 0 10 4.47715 10 10V70C4.47715 70 0 65.5229 0 60V0Z" fill="#F1F1F1"/>
<path d="M15 0H25V0.0873413L25.3305 0L31 21.4523V0H41V70H31V47.0785L25 24.3758V70H15V0Z" fill="#F1F1F1"/>
<path d="M41 9.53674e-07V10C41 4.47715 36.5228 9.53674e-07 31 9.53674e-07H41Z" fill="#8E169B"/>
<path d="M79.7931 28.9655C79.7931 31.6317 77.6317 33.7931 74.9655 33.7931L53.7241 33.7931C52.9243 33.7931 52.2758 34.4415 52.2758 35.2414C52.2758 36.0412 52.9243 36.6897 53.7241 36.6897L75.4483 36.6897C77.8478 36.6897 79.7931 38.6349 79.7931 41.0345L52.0345 41.0345C48.7017 41.0345 46 38.3328 46 35C46 31.6672 48.7017 28.9655 52.0345 28.9655L79.7931 28.9655Z" fill="#F1F1F1"/>
<path fill-rule="evenodd" clip-rule="evenodd" d="M79.7931 19.3103C79.7931 16.6442 77.6317 14.4828 74.9655 14.4828L50.8276 14.4828C48.1614 14.4828 46 16.6442 46 19.3103V21.7241C46 24.3903 48.1614 26.5517 50.8276 26.5517L74.9655 26.5517C77.6317 26.5517 79.7931 24.3903 79.7931 21.7241V19.3103ZM76.4138 20.2759C76.4138 19.476 75.7654 18.8276 74.9655 18.8276L49.8621 18.8276C49.0622 18.8276 48.4138 19.476 48.4138 20.2759C48.4138 21.0757 49.0622 21.7241 49.8621 21.7241L74.9655 21.7241C75.7654 21.7241 76.4138 21.0757 76.4138 20.2759Z" fill="#F1F1F1"/>
<path d="M79.7931 48.2759C79.7931 45.6097 77.6948 43.4483 75.1064 43.4483H67.2574C65.9375 43.4483 64.6751 43.9887 63.7641 44.9439L61.0464 47.7931L60.8421 48.0304C60.7151 48.1778 60.5983 48.3313 60.4917 48.4899L57.7268 51.2441H50.3139C50.0487 51.2174 49.8246 51.1582 49.6376 51.0743C49.1844 50.8306 48.8759 50.3495 48.8759 49.7958C48.8759 48.9959 49.5197 48.3475 50.3139 48.3475H52.7636C54.1052 48.3475 55.3863 47.7892 56.2997 46.8065L59.4209 43.4483H50.7932C48.146 43.4483 46 45.6097 46 48.2759V50.6897C46 53.3559 48.146 55.5173 50.7932 55.5173L58.8995 55.5173C60.2007 55.5173 61.4467 54.9921 62.3552 54.0607L64.4442 51.9193L64.4711 51.9464L68.7125 47.7215H75.5751C75.8344 47.7482 76.0535 47.8074 76.2363 47.8913C76.6795 48.135 76.9811 48.6161 76.9811 49.1697C76.9811 49.9696 76.3516 50.618 75.5751 50.618H73.2588C71.8984 50.618 70.6011 51.192 69.6861 52.1988L66.6704 55.5173H75.1064C77.6948 55.5173 79.7931 53.3559 79.7931 50.6897V48.2759Z" fill="#F1F1F1"/>
<path d="M46 57.931V70H50.8276V62.7586L60.9655 62.7586V66.8621H63.8621V62.7586H74.9655V70H79.7931V57.931L46 57.931Z" fill="#F1F1F1"/>
<path d="M50.8276 70H46C48.6662 70 50.8276 67.8386 50.8276 65.1724V70Z" fill="#8E169B"/>
<path d="M74.9655 70V65.1724C74.9655 67.8386 77.1269 70 79.7931 70H74.9655Z" fill="#8E169B"/>
<path fill-rule="evenodd" clip-rule="evenodd" d="M79.7931 12.069C79.7931 9.40276 77.6317 7.24138 74.9655 7.24138L63.8621 7.24138V4.82759L74.9655 4.82759C77.6317 4.82759 79.7931 2.66619 79.7931 0L46 0C46 2.6662 48.1614 4.82759 50.8276 4.82759L60.9655 4.82759V7.24138L50.8276 7.24138C48.1614 7.24138 46 9.40277 46 12.069L79.7931 12.069Z" fill="#F1F1F1"/>
</svg>
