<svg width="120" height="40" viewBox="0 0 195 70" fill="none" xmlns="http://www.w3.org/2000/svg">
<path d="M0 0C5.52285 0 10 4.47715 10 10V70C4.47715 70 0 65.5229 0 60V0Z" fill="#F1F1F1"/>
<path d="M110 0C115.523 0 120 4.47715 120 10V54C120 55.6569 121.343 57 123 57C124.657 57 126 55.6569 126 54V9C126 4.02944 130.029 0 135 0V60C135 65.5229 130.523 70 125 70H120C114.477 70 110 65.5229 110 60V0Z" fill="#F1F1F1"/>
<path fill-rule="evenodd" clip-rule="evenodd" d="M90 0C84.4772 0 80 4.47714 80 10V60C80 65.5229 84.4772 70 90 70H95C100.523 70 105 65.5229 105 60V10C105 4.47714 100.523 0 95 0H90ZM92 7C90.3431 7 89 8.34314 89 10V62C89 63.6569 90.3431 65 92 65C93.6569 65 95 63.6569 95 62V10C95 8.34314 93.6569 7 92 7Z" fill="#F1F1F1"/>
<path d="M150 0C144.477 0 140 4.34647 140 9.7081V25.9668C140 28.7009 141.12 31.3158 143.098 33.2029L149 38.8325L149.491 39.2557C149.797 39.5187 150.115 39.7607 150.443 39.9814L156.148 45.7088V61.0641C156.093 61.6134 155.97 62.0776 155.797 62.4648C155.292 63.4038 154.295 64.0428 153.148 64.0428C151.492 64.0428 150.148 62.7092 150.148 61.0641V55.9897C150.148 53.2107 148.992 50.5569 146.956 48.665L140 42.1995V60.0713C140 65.5547 144.477 70 150 70H155C160.523 70 165 65.5547 165 60.0713V43.2795C165 40.5843 163.912 38.0033 161.983 36.1213L157.547 31.7942L157.603 31.7384L148.852 22.9527V8.7373C148.907 8.2002 149.03 7.74631 149.203 7.36771C149.708 6.44965 150.705 5.82486 151.852 5.82486C153.508 5.82486 154.852 7.12881 154.852 8.7373V13.5353C154.852 16.3533 156.041 19.0406 158.126 20.9358L165 27.1827V9.7081C165 4.34647 160.523 0 155 0H150Z" fill="#F1F1F1"/>
<path d="M15 0H25V0.0873413L25.3305 0L31 21.4523V0H41V70H31V47.0785L25 24.3758V70H15V0Z" fill="#F1F1F1"/>
<path d="M41 9.53674e-07V10C41 4.47715 36.5228 9.53674e-07 31 9.53674e-07H41Z" fill="#8E169B"/>
<path d="M170 70H195V60H180V39H188.5V33H180V10H195V0H170V70Z" fill="#F1F1F1"/>
<path d="M195 60V70C195 64.4772 190.523 60 185 60H195Z" fill="#8E169B"/>
<path d="M195 10L185 10C190.523 10 195 5.52285 195 0V10Z" fill="#8E169B"/>
<path fill-rule="evenodd" clip-rule="evenodd" d="M75 0C69.4772 0 65 4.47715 65 10L65 33H60V10C60 4.47714 55.5228 0 50 0V70C55.5228 70 60 65.5229 60 60L60 39H65V60C65 65.5229 69.4772 70 75 70V0Z" fill="#F1F1F1"/>
</svg>
