<svg width="15px" height="15px" viewBox="0 0 44 41" fill="none" xmlns="http://www.w3.org/2000/svg">
<path fill-rule="evenodd" clip-rule="evenodd" d="M25 6.5H23V15.0449C28.6065 15.5501 33 20.262 33 26C33 28.1249 32.3975 30.1092 31.3539 31.7911L38.7266 36.579L39.8159 34.9017L43.214 40.6855L36.548 39.9337L37.6373 38.2564L30.1464 33.3918C28.1341 35.6083 25.2296 37 22 37C18.7469 37 15.8238 35.5879 13.8099 33.3433L13.8404 33.3922L6.20795 38.1614L7.26776 39.8575L0.589722 40.4929L4.08826 34.7692L5.14813 36.4653L12.6411 31.7831C11.6006 30.1029 11 28.1216 11 26C11 20.262 15.3935 15.5501 21 15.0449V6.5H19L22 0.5L25 6.5ZM30 26C30 30.4183 26.4183 34 22 34C17.5817 34 14 30.4183 14 26C14 21.5817 17.5817 18 22 18C26.4183 18 30 21.5817 30 26Z" fill="white"/>
</svg>
